<?xml version="1.0" encoding="iso-8859-1"?>
<!-- Uploaded to: SVG Repo, www.svgrepo.com, Generator: SVG Repo Mixer Tools -->
<svg fill="#000000" version="1.1" id="Layer_1" xmlns="http://www.w3.org/2000/svg" xmlns:xlink="http://www.w3.org/1999/xlink" 
	 viewBox="0 0 497.296 497.296" xml:space="preserve">
<g>
	<g>
		<g>
			<path d="M416.648,259.84L336,360.648h32.408c-2.4,39.544-22.464,76.44-54.688,99.88l-49.68,36.12h56.608
				c76.72,0,139.616-60.304,143.784-136h32.864L416.648,259.84z M448.648,344.648v8c0,70.576-57.424,128-128,128h-7.392l9.864-7.176
				c38.528-28.016,61.528-73.192,61.528-120.824v-8h-15.352l47.352-59.192L464,344.648H448.648z"/>
			<path d="M360.648,128.864c40.464,2.232,75.696,21.464,99.88,54.712l36.12,49.672v-56.6c0-75.376-61.496-139.456-136-143.768V0
				L259.84,80.648l100.808,80.648V128.864z M344.648,112.648V128l-59.192-47.352l59.192-47.352v15.352h8
				c69.384,0,128,58.616,128,128v7.4l-7.176-9.872c-28.856-39.68-71.768-61.528-120.824-61.528H344.648z"/>
			<path d="M161.296,136.648h-32.432c2.232-40.456,21.464-75.688,54.712-99.88l49.672-36.12h-56.6
				c-75.376,0-139.456,61.496-143.768,136H0l80.648,100.808L161.296,136.648z M48.648,152.648v-8c0-69.384,58.616-128,128-128h7.4
				l-9.88,7.184c-39.672,28.856-61.52,71.76-61.52,120.816v8H128L80.648,211.84l-47.352-59.192H48.648z"/>
			<path d="M136.648,368.432c-40.456-2.232-75.696-21.464-99.88-54.712l-36.12-49.68v56.608c0,75.376,61.496,139.456,136,143.768
				v32.88l100.808-80.648L136.648,336V368.432z M152.648,384.648v-15.352l59.192,47.352L152.648,464v-15.352h-8
				c-69.384,0-128-58.616-128-128v-7.392l7.176,9.864c28.864,39.68,71.768,61.528,120.824,61.528H152.648z"/>
			<path d="M136.648,248.648c0,61.76,50.24,112,112,112s112-50.24,112-112s-50.24-112-112-112S136.648,186.888,136.648,248.648z
				 M223.92,155.992c-8.568,9.064-18.296,21.416-25.936,36.8c-9.296-3.392-15.52-7.168-19.144-9.848
				C190.912,170.136,206.424,160.672,223.92,155.992z M168.816,195.416c4.656,3.536,12.128,8.136,23.024,12.184
				c-3.552,10.04-6,21.064-6.784,33.048h-32C154.432,224.016,160.016,208.568,168.816,195.416z M168.816,301.88
				c-8.8-13.152-14.384-28.6-15.76-45.232h32c0.784,11.984,3.232,23.008,6.784,33.048
				C180.944,293.744,173.472,298.344,168.816,301.88z M178.824,314.336c3.608-2.672,9.832-6.456,19.152-9.848
				c7.64,15.392,17.376,27.752,25.944,36.816C206.424,336.624,190.896,327.16,178.824,314.336z M240.648,335.304
				c-8.08-7.848-18.528-19.856-26.744-35.328c7.592-1.592,16.496-2.728,26.744-3.136V335.304z M240.648,280.856
				c-12.92,0.472-23.992,2.032-33.352,4.224c-3.184-8.688-5.424-18.176-6.224-28.432h39.576V280.856z M240.648,240.648h-39.576
				c0.8-10.256,3.04-19.744,6.224-28.432c9.36,2.192,20.432,3.752,33.352,4.224V240.648z M240.648,200.456
				c-10.248-0.408-19.144-1.552-26.736-3.144c8.208-15.472,18.656-27.48,26.736-35.32V200.456z M273.368,341.304
				c8.568-9.064,18.296-21.416,25.936-36.8c9.296,3.392,15.528,7.168,19.152,9.848C306.384,327.16,290.872,336.624,273.368,341.304z
				 M328.48,301.88c-4.656-3.536-12.128-8.136-23.024-12.184c3.552-10.04,6-21.064,6.784-33.048h32
				C342.864,273.28,337.28,288.728,328.48,301.88z M328.48,195.416c8.8,13.152,14.384,28.6,15.76,45.232h-32
				c-0.784-11.984-3.232-23.008-6.784-33.048C316.352,203.552,323.824,198.952,328.48,195.416z M318.464,182.96
				c-3.608,2.672-9.832,6.456-19.152,9.848c-7.64-15.392-17.376-27.744-25.944-36.816C290.88,160.672,306.4,170.144,318.464,182.96z
				 M256.648,161.992c8.08,7.848,18.528,19.856,26.744,35.328c-7.592,1.592-16.496,2.728-26.744,3.136V161.992z M256.648,216.44
				c12.92-0.472,24-2.032,33.352-4.224c3.184,8.688,5.424,18.176,6.224,28.432h-39.576V216.44z M256.648,256.648h39.576
				c-0.8,10.256-3.04,19.744-6.224,28.432c-9.36-2.192-20.432-3.752-33.352-4.224V256.648z M256.648,296.84
				c10.248,0.408,19.144,1.552,26.736,3.144c-8.208,15.472-18.656,27.48-26.736,35.32V296.84z"/>
			<rect x="240.648" y="104.648" width="16" height="16"/>
			<rect x="240.648" y="376.648" width="16" height="16"/>
			<rect x="376.648" y="240.648" width="16" height="16"/>
			<rect x="104.648" y="240.648" width="16" height="16"/>
		</g>
	</g>
</g>
</svg>